# xmcd CD database file
#
# Track frame offsets:
#	150
#	26550
#	43000
#	58150
#	69937
#	87450
#	101012
#	114737
#	131362
#	155350
#	173725
#	186075
#	201187
#	212037
#	231300
#	250175
#	264687
#	280275
#	295062
#	304400
#	323975
#
# Disc length: 4521 seconds
#
# Revision: 0
# Processed by: cddbd v1.5.1PL2 Copyright (c) Steve Scherf et al.
# Submitted via: CDex 1.40Beta9
#
DISCID=3d11a715
DTITLE=Axel Zwingenberger - A.Z. and the friends of Boogie Woogie Vol.7
DYEAR=1992
DGENRE=Blues
TTITLE0=Schooldays
TTITLE1=Who's been here?
TTITLE2=Blues before sunrise
TTITLE3=Alberta
TTITLE4=See See Rider
TTITLE5=Rocky Mountains
TTITLE6=That's all Right
TTITLE7=Professor Boogie
TTITLE8=I Would'nt be where I Am
TTITLE9=Midnight Hour Blues
TTITLE10=How Long Blues
TTITLE11=Louise-Louise Blues
TTITLE12=Hand me down my walking Cane
TTITLE13=Fine and Mellow
TTITLE14=44 Blues
TTITLE15=Shakin' mother For You
TTITLE16=Night Time is The Right Time
TTITLE17=The Lock On My Door
TTITLE18=Keep a Knockin'
TTITLE19=Goin' Down Slow
TTITLE20=Hell On Earth
EXTD=YEAR: 1992 ID3G: 0
EXTT0=
EXTT1=
EXTT2=
EXTT3=
EXTT4=
EXTT5=
EXTT6=
EXTT7=
EXTT8=
EXTT9=
EXTT10=
EXTT11=
EXTT12=
EXTT13=
EXTT14=
EXTT15=
EXTT16=
EXTT17=
EXTT18=
EXTT19=
EXTT20=
PLAYORDER=
